<svg xmlns="http://www.w3.org/2000/svg" width="14" height="14" fill="none" viewBox="0 0 14 14"><path stroke="url(#a)" d="M6.643 2.055a.356.356 0 0 1 .614 0l1.236 2.104c.192.328.513.56.884.64l2.39.512a.356.356 0 0 1 .19.586l-1.622 1.798c-.256.285-.38.665-.341 1.046l.245 2.407a.356.356 0 0 1-.496.362l-2.25-.984a1.36 1.36 0 0 0-1.086 0l-2.25.984a.356.356 0 0 1-.496-.362l.245-2.407a1.36 1.36 0 0 0-.341-1.046L1.944 5.897a.356.356 0 0 1 .19-.586l2.389-.513c.37-.08.692-.311.884-.639z"/><defs><linearGradient id="a" x1="6.95" x2="6.95" y1="1.456" y2="12.008" gradientUnits="userSpaceOnUse"><stop stop-color="#FFCA11"/><stop offset="1" stop-color="#FFAD27"/></linearGradient></defs></svg>