<svg xmlns="http://www.w3.org/2000/svg" width="15" height="15" fill="rgba(0,0,0,0.54)" viewBox="0 0 15 15"><circle cx="7.5" cy="7.5" r="6.5" fill="none" stroke="rgba(0,0,0,0.54)" stroke-miterlimit="10"/><path d="M5.3 5.3c.1-.3.3-.6.5-.8s.4-.4.7-.5.6-.2 1-.2c.3 0 .6 0 .9.1s.5.2.7.4.4.4.5.7.2.6.2.9c0 .2 0 .4-.1.6s-.1.3-.2.5l-.3.3c-.1.2-.2.3-.4.4l-.3.3c-.1.1-.2.2-.3.4-.1.1-.1.2-.2.4s-.1.3-.1.5v.4H7v-.5c0-.3.1-.6.2-.8s.2-.4.3-.5l.5-.5.4-.4c.1-.2.2-.3.3-.5s.1-.4.1-.7c0-.4-.2-.7-.4-.9s-.5-.3-.9-.3c-.3 0-.5 0-.7.1-.1.1-.3.2-.4.4-.1.1-.2.3-.3.5 0 .2-.1.5-.1.7h-.9c0-.3.1-.7.2-1m2.8 5.1v1.2H6.9v-1.2z"/></svg>