<svg xmlns="http://www.w3.org/2000/svg" width="14" height="14" fill="none" viewBox="0 0 14 14"><path fill="url(#a)" d="M6.011 1.802a.856.856 0 0 1 1.476 0l1.236 2.104a.86.86 0 0 0 .558.403l2.39.513c.643.138.896.92.456 1.41L10.505 8.03a.86.86 0 0 0-.215.66l.246 2.407a.856.856 0 0 1-1.194.87l-2.25-.982a.86.86 0 0 0-.686 0l-2.25.983a.856.856 0 0 1-1.194-.871l.246-2.407a.86.86 0 0 0-.216-.66l-1.62-1.798a.856.856 0 0 1 .455-1.41l2.39-.513a.86.86 0 0 0 .558-.403z"/><defs><linearGradient id="a" x1="6.749" x2="6.749" y1="1.456" y2="12.008" gradientUnits="userSpaceOnUse"><stop stop-color="#FFCA11"/><stop offset="1" stop-color="#FFAD27"/></linearGradient></defs></svg>